<svg width="57" height="19" viewBox="0 0 57 19" fill="none" xmlns="http://www.w3.org/2000/svg">
<path fill-rule="evenodd" clip-rule="evenodd" d="M57.0001 16.6129C57.0001 18.0304 56.1025 18.6911 54.496 18.6911H51.4257V17.2736H54.496C54.7795 17.2736 55.0158 17.2267 55.1107 17.1325C55.2049 17.0376 55.2994 16.8958 55.2994 16.7071C55.2994 16.5177 55.2052 16.329 55.1107 16.2349C55.0158 16.14 54.8271 16.0931 54.5436 16.0931C53.0795 16.0455 51.2367 16.14 51.2367 14.0615C51.2367 13.1163 51.8507 12.0769 53.5042 12.0769H56.6693V13.4944H53.7401C53.4573 13.4944 53.2679 13.4944 53.1261 13.5886C52.9843 13.7304 52.8901 13.8721 52.8901 14.1084C52.8901 14.3448 53.0319 14.4865 53.2206 14.5814C53.41 14.6283 53.599 14.6756 53.8354 14.6756H54.6854C55.583 14.6756 56.1501 14.8643 56.5282 15.1954C56.8111 15.5259 57.0001 15.9516 57.0001 16.6129ZM50.3387 15.1954C49.9606 14.8643 49.3935 14.6756 48.4959 14.6756H47.6458C47.4099 14.6756 47.2205 14.628 47.0318 14.5814C46.8424 14.4865 46.7013 14.3448 46.7013 14.1084C46.7013 13.8721 46.7482 13.7304 46.9373 13.5886C47.0791 13.4944 47.2678 13.4944 47.5513 13.4944H50.4805V12.0769H47.3154C45.6143 12.0769 45.0472 13.1163 45.0472 14.0615C45.0472 16.1396 46.89 16.0455 48.3548 16.0931C48.6376 16.0931 48.827 16.14 48.9212 16.2349C49.0154 16.329 49.1106 16.5177 49.1106 16.7071C49.1106 16.8958 49.0157 17.0376 48.9212 17.1325C48.7794 17.2267 48.5907 17.2736 48.3072 17.2736H45.2362V18.6911H48.3072C49.913 18.6911 50.811 18.0301 50.811 16.6129C50.811 15.9516 50.6223 15.5259 50.3387 15.1954ZM44.2913 17.3215H40.5598V15.9985H44.1971V14.6763H40.5598V13.4475H44.2913V12.0776H39.0005V18.6914H44.2913V17.3215ZM37.2994 12.4084C36.7795 12.1248 36.1655 12.0772 35.3624 12.0772H31.725V18.6911H33.3308V16.2818H35.0319C35.5984 16.2818 35.9295 16.3294 36.1658 16.5653C36.4494 16.8958 36.4494 17.463 36.4494 17.8883V18.6911H38.008V17.4154C38.008 16.8013 37.9611 16.5177 37.772 16.1873C37.6302 15.9979 37.3474 15.7619 36.9693 15.6201C37.3939 15.479 38.1032 14.9119 38.1032 13.8721C38.1029 13.1166 37.8193 12.6913 37.2994 12.4084ZM28.3232 12.0772H23.268L21.2364 14.2506L19.2994 12.0772H12.9216V18.6911H19.2052L21.2368 16.5177L23.1738 18.6911H26.2448V16.4712H28.229C29.5989 16.4712 30.9695 16.0931 30.9695 14.2506C30.9692 12.4553 29.5517 12.0772 28.3232 12.0772ZM36.0237 14.8177C35.7877 14.9119 35.5514 14.9119 35.2679 14.9119L33.3308 14.9595V13.4471H35.2679C35.5514 13.4471 35.835 13.4471 36.0237 13.5889C36.2131 13.6838 36.3542 13.8725 36.3542 14.156C36.3542 14.4396 36.2131 14.6759 36.0237 14.8177ZM28.3232 15.1482H26.2444V13.4471H28.3232C28.8904 13.4471 29.2681 13.6838 29.2681 14.2506C29.2681 14.8177 28.89 15.1482 28.3232 15.1482ZM22.2286 15.3842L24.6851 12.7862V18.1246L22.2286 15.3842ZM18.4018 17.3215H14.4805V15.9985H17.9764V14.6763H14.4805V13.4475H18.4491L20.197 15.3845L18.4018 17.3215ZM52.6062 7.30558H50.3387L47.3623 2.34486V7.30558H44.1502L43.5355 5.84082H40.2286L39.6145 7.30558H37.7717C37.0158 7.30558 36.0237 7.11653 35.4573 6.54939C34.9374 5.9826 34.6538 5.22677 34.6538 4.04558C34.6538 3.05344 34.7956 2.15582 35.5038 1.44724C35.9761 0.92737 36.8268 0.691406 37.9131 0.691406H39.4248V2.1089H37.9131C37.3467 2.1089 37.0155 2.20342 36.685 2.48699C36.4015 2.77056 36.2597 3.29009 36.2597 3.99866C36.2597 4.70724 36.4015 5.22711 36.685 5.55794C36.921 5.7939 37.3467 5.88842 37.7713 5.88842H38.4803L40.7478 0.691749H43.1101L45.7557 6.92783V0.691406H48.2126L51 5.27403V0.691406H52.6059L52.6062 7.30558ZM33.8507 0.691406H32.2449V7.30558H33.8507V0.691406ZM30.4962 0.974974C29.9763 0.691407 29.4099 0.691406 28.6068 0.691406H24.9687V7.30558H26.5276V4.89594H28.2284C28.7955 4.89594 29.1736 4.9432 29.4095 5.17951C29.6931 5.51033 29.6455 6.07747 29.6455 6.45522V7.30558H31.2514V5.98261C31.2514 5.41581 31.2044 5.13224 30.9685 4.80142C30.8267 4.61237 30.5431 4.37607 30.2126 4.23462C30.6373 4.04558 31.3466 3.52605 31.3466 2.48665C31.3469 1.73081 31.0157 1.30546 30.4962 0.974974ZM23.8348 5.93569H20.1498V4.61272H23.7875V3.24283H20.1498V2.06164H23.8348V0.691749H18.5436V7.30592H23.8348V5.93569ZM17.3624 0.691406H14.7641L12.827 5.17951L10.7482 0.691406H8.19715V6.92748L5.50429 0.691406H3.14226L0.307617 7.30558H2.00833L2.62239 5.84082H5.9293L6.54335 7.30558H9.75608V2.1089L12.0709 7.30558H13.4407L15.7559 2.1089V7.30558H17.3621L17.3624 0.691406ZM42.969 4.42367L41.882 1.82533L40.7957 4.42367H42.969ZM29.2681 3.38461C29.0321 3.52639 28.7958 3.52639 28.465 3.52639H26.5276V2.06198H28.4647C28.7482 2.06198 29.0784 2.06198 29.2678 2.1565C29.4565 2.29829 29.5513 2.48733 29.5513 2.77055C29.5513 3.05378 29.4568 3.28974 29.2681 3.38461ZM3.18918 4.42367L4.27584 1.82533L5.36251 4.42367H3.18918Z" fill="url(#paint0_linear_2011_270)"/>
<defs>
<linearGradient id="paint0_linear_2011_270" x1="28.6539" y1="0.691406" x2="28.6539" y2="18.6914" gradientUnits="userSpaceOnUse">
<stop stop-color="white"/>
<stop offset="1" stop-color="white" stop-opacity="0.75"/>
</linearGradient>
</defs>
</svg>
