<svg width="66" height="12" viewBox="0 0 66 12" fill="none" xmlns="http://www.w3.org/2000/svg">
<path fill-rule="evenodd" clip-rule="evenodd" d="M3.25283 0.426587H0.23877V10.9171H3.21369C4.81894 10.9171 5.95382 10.5645 6.97167 9.70356C8.14607 8.72522 8.88961 7.23738 8.88961 5.67165C8.88961 2.5797 6.57996 0.426587 3.25283 0.426587V0.426587ZM5.64075 8.3335C4.97547 8.88176 4.1529 9.15569 2.82236 9.15569H2.27448V2.22712H2.82236C4.1529 2.22712 4.93596 2.46192 5.64075 3.04893C6.34515 3.67507 6.776 4.65417 6.776 5.67165C6.77562 6.68951 6.34515 7.70736 5.64075 8.3335ZM9.8292 10.9175H11.8645V0.426587H9.8292V10.9175ZM16.8748 4.4585C15.6221 3.9889 15.2699 3.71496 15.2699 3.12758C15.2699 2.4623 15.9352 1.9927 16.7965 1.9927C17.4227 1.9927 17.9318 2.2275 18.4405 2.81451L19.5366 1.44482C18.6362 0.661769 17.5796 0.270434 16.4443 0.270434C14.5655 0.270434 13.1563 1.56223 13.1563 3.28449C13.1563 4.73282 13.8216 5.43761 15.7399 6.14201C16.5621 6.41595 16.9534 6.61162 17.1491 6.72902C17.5796 7.00334 17.7752 7.39429 17.7752 7.82514C17.7752 8.68647 17.11 9.31261 16.1704 9.31261C15.2308 9.31261 14.409 8.80387 13.939 7.90341L12.6476 9.19521C13.5872 10.5649 14.7221 11.1914 16.2878 11.1914C18.4014 11.1914 19.8892 9.78221 19.8892 7.74688C19.8889 6.06337 19.1844 5.31944 16.8748 4.4585V4.4585ZM20.5154 5.67165C20.5154 8.76397 22.9424 11.1519 26.0735 11.1519C26.9348 11.1519 27.7175 10.995 28.618 10.5645V8.13746C27.7958 8.95927 27.0914 9.31185 26.1518 9.31185C24.1164 9.31185 22.629 7.78525 22.629 5.67127C22.629 3.67507 24.1556 2.07021 26.0735 2.07021C27.0522 2.07021 27.7958 2.42241 28.618 3.2446V0.85668C27.7566 0.386695 27.0131 0.191406 26.1126 0.191406C23.0203 0.191786 20.5154 2.65797 20.5154 5.67165V5.67165Z" fill="url(#paint0_linear_2011_441)"/>
<path fill-rule="evenodd" clip-rule="evenodd" d="M34.9989 0.191772C31.9062 0.191772 29.4009 2.61883 29.4009 5.59337C29.4009 8.80348 31.7888 11.1519 34.9989 11.1519C38.1296 11.1519 40.5962 8.76396 40.5962 5.67164C40.5965 2.61882 38.1691 0.191772 34.9989 0.191772Z" fill="url(#paint1_linear_2011_441)"/>
<path fill-rule="evenodd" clip-rule="evenodd" d="M45.2148 7.47261L42.4356 0.426636H40.165L44.6278 11.1911H45.7239L50.2646 0.426636H48.0332L45.2148 7.47261ZM51.2042 10.9175H56.9975V9.15574H53.2395V6.33735H56.8406V4.53682H53.2395V2.22717H56.9975V0.426636H51.2042V10.9175ZM65.1001 3.51896C65.1001 1.56189 63.7688 0.426636 61.3816 0.426636H58.3672V10.9171H60.4025V6.72869H60.6764L63.4948 10.9171H66.0001L62.7122 6.49351C64.2384 6.18082 65.1001 5.12382 65.1001 3.51896ZM60.9895 5.28074H60.4025V2.07101H61.0286C62.3204 2.07101 62.9853 2.61889 62.9853 3.63674C62.9857 4.69336 62.3208 5.28074 60.9895 5.28074Z" fill="url(#paint2_linear_2011_441)"/>
<defs>
<linearGradient id="paint0_linear_2011_441" x1="14.4284" y1="0.191406" x2="14.4284" y2="11.1914" gradientUnits="userSpaceOnUse">
<stop stop-color="white"/>
<stop offset="1" stop-color="white" stop-opacity="0.75"/>
</linearGradient>
<linearGradient id="paint1_linear_2011_441" x1="34.9985" y1="0.191772" x2="34.9985" y2="11.1519" gradientUnits="userSpaceOnUse">
<stop stop-color="white"/>
<stop offset="1" stop-color="white" stop-opacity="0.75"/>
</linearGradient>
<linearGradient id="paint2_linear_2011_441" x1="53.0826" y1="0.426636" x2="53.0826" y2="11.1911" gradientUnits="userSpaceOnUse">
<stop stop-color="white"/>
<stop offset="1" stop-color="white" stop-opacity="0.75"/>
</linearGradient>
</defs>
</svg>
