<svg width="34" height="21" viewBox="0 0 34 21" fill="none" xmlns="http://www.w3.org/2000/svg">
<path fill-rule="evenodd" clip-rule="evenodd" d="M17.4105 18.1031C18.4408 17.1632 19.2633 16.0183 19.8252 14.742C20.3871 13.4656 20.676 12.0859 20.6735 10.6913C20.6761 9.29674 20.3871 7.91702 19.8252 6.64065C19.2633 5.36428 18.4408 4.21944 17.4105 3.27957C15.6488 1.67141 13.3118 0.691406 10.7472 0.691406C5.26529 0.691406 0.821045 5.16846 0.821045 10.6913C0.821045 16.214 5.26529 20.6912 10.7472 20.6912C13.3118 20.6912 15.649 19.7112 17.4105 18.1031Z" fill="#B7B7B7"/>
<path fill-rule="evenodd" clip-rule="evenodd" d="M24.0739 0.691406C21.5093 0.691406 19.1719 1.67141 17.4105 3.27957C17.0513 3.60779 16.7164 3.96164 16.4084 4.33831H18.412C18.6871 4.67452 18.94 5.02824 19.1693 5.39724H15.6516C15.4399 5.73846 15.2488 6.09207 15.0793 6.45616H19.7407C19.9011 6.80077 20.0417 7.15426 20.1618 7.5149H14.659C14.5436 7.86227 14.4474 8.21572 14.3708 8.57365H20.4502C20.599 9.2697 20.6739 9.97953 20.6737 10.6913C20.6737 11.8015 20.4935 12.8696 20.162 13.8676H14.659C14.7787 14.2283 14.9191 14.5818 15.0793 14.9265H19.7407C19.5715 15.2906 19.3807 15.6442 19.1691 15.9854H15.6516C15.8806 16.3544 16.1333 16.7081 16.4082 17.0443H18.412C18.1044 17.4212 17.7696 17.7751 17.4105 18.1032C19.1719 19.7114 21.5093 20.6914 24.0739 20.6914C29.5556 20.6914 34 16.2142 34 10.6915C34 5.16846 29.5556 0.691406 24.0739 0.691406Z" fill="#6D6D6D"/>
<path fill-rule="evenodd" clip-rule="evenodd" d="M30.5794 12.8586C30.5794 12.6802 30.7229 12.5355 30.8999 12.5355C31.0769 12.5355 31.2203 12.6802 31.2203 12.8586C31.2203 13.037 31.0769 13.1814 30.8999 13.1814C30.7229 13.1814 30.5794 13.0368 30.5794 12.8586ZM30.8997 13.1037C31.0341 13.1037 31.1432 12.9939 31.1432 12.8584C31.1432 12.7226 31.0341 12.6128 30.8997 12.6128C30.7649 12.6128 30.6562 12.7226 30.6562 12.8584C30.6562 12.9939 30.7651 13.1037 30.8997 13.1037ZM30.8564 13.0001H30.7906V12.7164H30.9098C30.9344 12.7164 30.96 12.7167 30.9814 12.7309C30.9928 12.7388 31.002 12.7494 31.0082 12.7617C31.0145 12.774 31.0177 12.7877 31.0174 12.8015C31.0174 12.8338 30.999 12.8636 30.9687 12.8749L31.0206 12.9999H30.9479L30.9047 12.8877H30.8566V13.0001V12.8394H30.8929C30.9064 12.8394 30.9213 12.8405 30.9328 12.834C30.9381 12.8303 30.9423 12.8254 30.9452 12.8197C30.9481 12.814 30.9496 12.8077 30.9495 12.8013C30.9494 12.7955 30.9479 12.7899 30.9451 12.7848C30.9423 12.7798 30.9384 12.7754 30.9336 12.7722C30.9222 12.7657 30.9038 12.7671 30.8917 12.7671H30.8568V13.0001H30.8564ZM9.50736 13.1814H8.27197L9.00618 9.28405L7.31573 13.1814H6.18924L5.98335 9.3064L5.24684 13.1814H4.12549L5.08368 8.11163H7.01141L7.11338 11.2503L8.47255 8.11163H10.4813L9.50736 13.1814V13.1814ZM23.3138 13.1308C22.9758 13.2243 22.7115 13.2645 22.426 13.2645C21.7939 13.2645 21.4488 12.9451 21.4488 12.3592C21.4488 12.2432 21.4616 12.1198 21.4852 11.9893L21.5604 11.5862L21.6182 11.2598L22.1908 8.11145H23.4195L23.2414 9.05829H23.8719L23.7025 10.0606H23.0694L22.7438 11.7809C22.7317 11.8371 22.7247 11.8942 22.7227 11.9517C22.7227 12.1647 22.8506 12.2572 23.1442 12.2572C23.2849 12.2572 23.3939 12.2445 23.4775 12.2187L23.3138 13.1308ZM26.922 9.09216C26.8185 9.05102 26.7942 9.05102 26.7821 9.04765C26.7167 9.03311 26.6817 9.0246 26.6757 9.02353C26.6347 9.01636 26.593 9.01291 26.5514 9.01325C26.1458 9.01325 25.8534 9.1952 25.4753 9.68272L25.5843 9.05794H24.4655L23.7125 13.1812H24.9487C25.391 10.6595 25.5804 10.2179 26.1735 10.2179C26.2182 10.2179 26.2698 10.2215 26.3297 10.2284L26.4741 10.258L26.922 9.09216V9.09216ZM18.4164 10.3609C18.4164 10.8817 18.7078 11.2405 19.3682 11.5101C19.8744 11.7172 19.9526 11.7779 19.9526 11.9651C19.9526 12.2218 19.7295 12.3376 19.2352 12.3376C18.8621 12.3376 18.5154 12.287 18.1151 12.1744L17.9436 13.1255L17.999 13.1349L18.2279 13.1771C18.3017 13.1899 18.4104 13.2021 18.5546 13.2131C18.8518 13.2363 19.0818 13.2473 19.2439 13.2473C20.5626 13.2473 21.1718 12.812 21.1718 11.8715C21.1718 11.3056 20.9172 10.9738 20.291 10.7239C19.7669 10.5152 19.7062 10.4689 19.7062 10.2765C19.7062 10.0543 19.9141 9.94005 20.3179 9.94005C20.5635 9.94005 20.8984 9.96328 21.216 10.0019L21.394 9.04747C21.0706 9.00314 20.5797 8.96678 20.2943 8.96678C18.8961 8.96696 18.4122 9.60043 18.4164 10.3609V10.3609ZM13.5235 13.1814H12.4968L12.5208 12.754C12.2081 13.0923 11.7914 13.2527 11.2249 13.2527C10.5555 13.2527 10.096 12.7933 10.096 12.1265C10.096 11.122 10.8942 10.5366 12.2661 10.5366C12.4068 10.5366 12.5853 10.5478 12.7694 10.5684C12.8077 10.4329 12.8182 10.3744 12.8182 10.3006C12.8182 10.0277 12.6027 9.9255 12.0258 9.9255C11.6731 9.9255 11.2744 9.9702 10.9992 10.0404L10.828 10.0842L10.7172 10.1108L10.8885 9.18385C11.5044 9.02495 11.9109 8.96483 12.3676 8.96483C13.4293 8.96483 13.9904 9.38372 13.9904 10.1743C13.9904 10.3777 13.9718 10.5322 13.8901 10.9912L13.6319 12.4539L13.5884 12.7164L13.5568 12.926L13.5357 13.0695L13.5235 13.1814V13.1814ZM12.6222 11.3444C12.5306 11.333 12.4384 11.3274 12.3461 11.3274C11.6459 11.3274 11.2913 11.5383 11.2913 11.9547C11.2913 12.2113 11.4643 12.3752 11.7344 12.3752C12.2381 12.3753 12.6009 11.9541 12.6222 11.3444ZM17.5763 13.0923C17.1637 13.2043 16.738 13.2606 16.3105 13.2596C14.9293 13.2585 14.2095 12.625 14.2095 11.4124C14.2095 9.99697 15.1253 8.9549 16.3685 8.9549C17.3855 8.9549 18.035 9.53854 18.035 10.4536C18.035 10.7574 17.9906 11.0536 17.8833 11.4716H15.4269C15.4194 11.5143 15.4154 11.5576 15.415 11.6011C15.415 12.079 15.7813 12.3228 16.4988 12.3228C16.94 12.3228 17.3389 12.2422 17.7817 12.062L17.5763 13.0923ZM16.9184 10.639C16.9251 10.5531 16.9287 10.4829 16.9287 10.4286C16.9287 10.0938 16.7121 9.89731 16.3443 9.89731C15.9513 9.89731 15.6702 10.1608 15.5562 10.6365L16.9184 10.639ZM30.7622 11.312C30.5773 12.6836 29.6265 13.2919 28.3626 13.2919C26.9649 13.2919 26.4005 12.4378 26.4005 11.3913C26.4005 9.92994 27.3565 8.93982 28.8331 8.93982C30.1148 8.93982 30.7952 9.75401 30.7952 10.8007C30.7952 11.0554 30.7949 11.0722 30.7622 11.312ZM29.49 10.7844C29.49 10.3531 29.3162 9.9459 28.8097 9.9459C28.1792 9.9459 27.7885 10.6966 27.7885 11.3593C27.7885 11.9183 28.0563 12.2939 28.4979 12.286C28.7657 12.286 29.3368 11.9185 29.4497 11.2767C29.4761 11.127 29.49 10.9628 29.49 10.7844V10.7844Z" fill="white"/>
</svg>
